<?phpxml version="1.0" encoding="utf-8"?>
<!-- Generator: Adobe Illustrator 23.1.1, SVG Export Plug-In . SVG Version: 6.00 Build 0)  -->
<svg version="1.1" id="Camada_1" xmlns="http://www.w3.org/2000/svg" xmlns:xlink="http://www.w3.org/1999/xlink" x="0px"
	y="0px" viewBox="0 0 76 33" style="enable-background:new 0 0 76 33;" xml:space="preserve">
	<style type="text/css">
		.st0 {
			fill-rule: evenodd;
			clip-rule: evenodd;
			fill: #333333;
		}
	</style>
	<path class="st0" d="M25.35,24.31c0,2.69-2.19,4.88-4.86,4.88v1.95c2.47,0,4.64-1.33,5.84-3.32v-3.51H25.35z M27.3,24.31
	c0,2.69,2.19,4.88,4.87,4.88v1.95c-2.47,0-4.64-1.33-5.84-3.32v-3.51H27.3z M50.65,8.69c0-2.69,2.18-4.88,4.86-4.88V1.86
	c-2.47,0-4.64,1.33-5.84,3.32v3.51H50.65z M48.7,8.69h0.97V5.18c-1.19-1.99-3.37-3.32-5.84-3.32v1.95
	C46.52,3.82,48.7,6.01,48.7,8.69z M48.7,24.31c0,2.69-2.18,4.88-4.87,4.88v1.95c3.75,0,6.81-3.07,6.81-6.83H48.7z M72.05,8.7H74
	c0-3.76-3.06-6.83-6.81-6.83v1.95C69.87,3.82,72.05,6.01,72.05,8.7z M3.95,24.31H2c0,3.76,3.06,6.83,6.81,6.83v-1.95
	C6.13,29.18,3.95,26.99,3.95,24.31z M32.16,1.87c-3.57,0-6.82,3.08-6.81,6.83h1.95c0-2.77,2.26-4.88,4.86-4.88
	C32.16,2.88,32.16,2.58,32.16,1.87z M50.65,29.18v1.95h11.68v-9.76H74V8.7h-1.95v10.73h-9.73V8.7h-1.95v20.49L50.65,29.18z
	 M55.51,1.86l11.68,0v1.95l-11.68,0V1.86z M50.65,20l0,4.31H48.7v-3.5L37.32,9.38l1.36-1.38L50.65,20z M25.35,13l11.97,12l1.36-1.38
	L27.3,12.19v-3.5h-1.95V13z M2,1.87h23.35v1.95h-9.73v20.45h-1.95V3.82H3.95v20.49H2V1.87z M8.81,29.18h11.68v1.95H8.81V29.18z
	 M32.16,1.87l11.68,0v1.95L32.16,3.81V1.87z M32.16,29.19l11.68,0.01v1.94l-11.68,0L32.16,29.19z" />
</svg>