<?phpxml version="1.0" encoding="utf-8"?>
<!-- Generator: Adobe Illustrator 23.1.1, SVG Export Plug-In . SVG Version: 6.00 Build 0)  -->
<svg version="1.1" id="Camada_2" xmlns="http://www.w3.org/2000/svg" xmlns:xlink="http://www.w3.org/1999/xlink" x="0px" y="0px"
	 viewBox="0 0 40 38" style="enable-background:new 0 0 40 38;" xml:space="preserve">
<style type="text/css">
	.st0{fill-rule:evenodd;clip-rule:evenodd;fill:#333333;}
</style>
<path class="st0" d="M38.06,19.11c0-9.8-8.09-17.75-18.06-17.75c-9.97,0-18.06,7.95-18.06,17.75c0,8.86,6.6,16.2,15.24,17.53v-12.4
	h-4.59v-5.13h4.59V15.2c0-4.45,2.7-6.91,6.82-6.91c1.98,0,4.04,0.35,4.04,0.35V13h-2.28c-2.24,0-2.94,1.37-2.94,2.77v3.33h5.01
	l-0.8,5.13h-4.21v12.4C31.46,35.31,38.06,27.97,38.06,19.11L38.06,19.11z"/>
</svg>