<?phpxml version="1.0" encoding="utf-8"?>
<!-- Generator: Adobe Illustrator 23.1.1, SVG Export Plug-In . SVG Version: 6.00 Build 0)  -->
<svg version="1.1" id="Camada_3" xmlns="http://www.w3.org/2000/svg" xmlns:xlink="http://www.w3.org/1999/xlink" x="0px" y="0px"
	 viewBox="0 0 40 38" style="enable-background:new 0 0 40 38;" xml:space="preserve">
<style type="text/css">
	.st0{fill:#333333;}
</style>
<path class="st0" d="M37.6,8.08c-1.29,0.57-2.69,0.96-4.15,1.14c1.49-0.89,2.64-2.31,3.18-4c-1.4,0.83-2.94,1.43-4.59,1.75
	c-1.32-1.4-3.19-2.28-5.27-2.28c-3.99,0-7.22,3.23-7.22,7.22c0,0.57,0.06,1.12,0.19,1.65c-6-0.3-11.32-3.18-14.88-7.55
	C4.23,7.09,3.87,8.33,3.87,9.65c0,2.51,1.27,4.72,3.21,6.01c-1.18-0.04-2.3-0.36-3.27-0.9c0,0.03,0,0.06,0,0.09
	c0,3.5,2.49,6.42,5.79,7.08c-0.61,0.16-1.24,0.25-1.9,0.25c-0.47,0-0.92-0.05-1.36-0.13c0.92,2.87,3.59,4.96,6.75,5.01
	c-2.47,1.94-5.59,3.09-8.97,3.09c-0.58,0-1.16-0.03-1.72-0.1c3.2,2.05,6.99,3.24,11.07,3.24c13.28,0,20.55-11,20.55-20.55
	c0-0.31-0.01-0.62-0.02-0.93C35.41,10.8,36.63,9.53,37.6,8.08L37.6,8.08z"/>
</svg>