<svg width="1006" height="461" viewBox="0 0 1006 461" fill="none" xmlns="http://www.w3.org/2000/svg">
<path d="M110.781 81.1228L206.719 322.528H14.8418L110.781 81.1228Z" fill="#F71313"/>
<path d="M236.39 321.874L140.451 80.4686L332.329 80.4686L236.39 321.874Z" fill="#F71313"/>
<path d="M362.872 81.1228L458.811 322.528H266.933L362.872 81.1228Z" fill="black"/>
<path d="M982.414 304.298V277.953C982.414 276.141 982.159 274.586 981.647 273.286C981.135 271.987 980.327 270.983 979.225 270.274C978.122 269.526 976.645 269.152 974.795 269.152C973.298 269.152 972.018 269.407 970.955 269.919C969.892 270.431 969.085 271.199 968.533 272.223C967.982 273.247 967.706 274.546 967.706 276.122H947.8C947.8 273.168 948.45 270.431 949.749 267.911C951.088 265.351 952.978 263.126 955.42 261.236C957.901 259.346 960.854 257.889 964.28 256.865C967.746 255.802 971.605 255.27 975.858 255.27C980.938 255.27 985.466 256.117 989.444 257.81C993.46 259.504 996.63 262.044 998.954 265.43C1001.28 268.777 1002.44 272.991 1002.44 278.071V304.239C1002.44 308.413 1002.68 311.583 1003.15 313.749C1003.62 315.875 1004.29 317.746 1005.16 319.36V320.364H985.191C984.246 318.395 983.537 315.993 983.064 313.158C982.631 310.283 982.414 307.33 982.414 304.298ZM984.836 281.32L984.954 291.952H976.153C974.302 291.952 972.727 292.208 971.428 292.72C970.167 293.232 969.144 293.941 968.356 294.847C967.608 295.713 967.057 296.697 966.702 297.8C966.387 298.903 966.23 300.064 966.23 301.285C966.23 302.466 966.505 303.53 967.057 304.475C967.647 305.381 968.435 306.089 969.419 306.601C970.404 307.113 971.506 307.369 972.727 307.369C974.932 307.369 976.803 306.956 978.339 306.129C979.914 305.262 981.115 304.219 981.942 302.998C982.769 301.777 983.182 300.635 983.182 299.572L987.553 307.724C986.766 309.299 985.86 310.894 984.836 312.508C983.852 314.123 982.611 315.619 981.115 316.997C979.658 318.336 977.866 319.439 975.74 320.305C973.613 321.132 971.034 321.546 968.002 321.546C964.064 321.546 960.441 320.739 957.133 319.124C953.864 317.509 951.246 315.265 949.277 312.39C947.308 309.476 946.323 306.129 946.323 302.348C946.323 299.04 946.914 296.087 948.095 293.488C949.316 290.889 951.147 288.684 953.589 286.872C956.03 285.061 959.141 283.683 962.922 282.737C966.702 281.792 971.152 281.32 976.271 281.32H984.836Z" fill="black"/>
<path d="M925.235 272.282V320.364H905.329V256.452H923.936L925.235 272.282ZM944.138 255.979L943.783 274.468C942.996 274.389 941.932 274.291 940.593 274.172C939.254 274.054 938.132 273.995 937.226 273.995C934.903 273.995 932.895 274.271 931.201 274.822C929.547 275.334 928.169 276.122 927.067 277.185C926.003 278.209 925.216 279.508 924.704 281.083C924.231 282.659 924.015 284.49 924.054 286.577L920.451 284.214C920.451 279.922 920.864 276.023 921.691 272.518C922.558 268.974 923.778 265.922 925.354 263.363C926.929 260.764 928.839 258.775 931.083 257.397C933.328 255.979 935.848 255.27 938.644 255.27C939.629 255.27 940.593 255.329 941.538 255.447C942.523 255.566 943.389 255.743 944.138 255.979Z" fill="black"/>
<path d="M874.2 304.829V256.452H894.165V320.364H875.499L874.2 304.829ZM876.09 291.834L881.288 291.716C881.288 296.008 880.776 299.986 879.752 303.648C878.728 307.271 877.212 310.421 875.204 313.099C873.235 315.777 870.793 317.864 867.879 319.36C865.005 320.817 861.677 321.546 857.897 321.546C854.746 321.546 851.852 321.113 849.214 320.246C846.614 319.341 844.37 317.943 842.48 316.052C840.589 314.123 839.113 311.662 838.049 308.669C837.026 305.637 836.514 302.014 836.514 297.8V256.452H856.42V297.918C856.42 299.336 856.597 300.557 856.952 301.58C857.306 302.604 857.818 303.471 858.487 304.18C859.157 304.849 859.984 305.361 860.968 305.715C861.992 306.03 863.154 306.188 864.453 306.188C867.446 306.188 869.789 305.558 871.483 304.298C873.176 303.037 874.357 301.324 875.027 299.159C875.736 296.993 876.09 294.551 876.09 291.834Z" fill="black"/>
<path d="M828.953 256.452V270.274H790.439V256.452H828.953ZM798.532 240.562H818.438V299.513C818.438 301.206 818.635 302.526 819.029 303.471C819.423 304.376 820.092 305.026 821.037 305.42C822.022 305.774 823.321 305.952 824.936 305.952C826.078 305.952 827.023 305.932 827.771 305.892C828.519 305.814 829.228 305.715 829.898 305.597V319.833C828.204 320.384 826.432 320.798 824.581 321.073C822.731 321.388 820.762 321.546 818.674 321.546C814.422 321.546 810.779 320.876 807.747 319.537C804.754 318.199 802.47 316.092 800.895 313.217C799.32 310.342 798.532 306.601 798.532 301.994V240.562Z" fill="black"/>
<path d="M760.315 321.546C755.116 321.546 750.47 320.739 746.374 319.124C742.279 317.47 738.813 315.206 735.978 312.331C733.182 309.456 731.036 306.148 729.54 302.407C728.083 298.666 727.354 294.709 727.354 290.535V288.29C727.354 283.604 728.004 279.272 729.303 275.295C730.603 271.278 732.532 267.773 735.092 264.78C737.652 261.788 740.861 259.464 744.72 257.81C748.58 256.117 753.069 255.27 758.188 255.27C762.717 255.27 766.773 255.999 770.356 257.456C773.94 258.913 776.972 261 779.453 263.717C781.973 266.434 783.883 269.723 785.183 273.582C786.522 277.441 787.191 281.773 787.191 286.577V294.669H734.974V282.206H767.757V280.67C767.797 278.543 767.423 276.732 766.635 275.236C765.887 273.739 764.784 272.597 763.327 271.81C761.87 271.022 760.098 270.628 758.011 270.628C755.845 270.628 754.053 271.101 752.636 272.046C751.257 272.991 750.174 274.291 749.387 275.944C748.639 277.559 748.107 279.43 747.792 281.556C747.477 283.683 747.319 285.927 747.319 288.29V290.535C747.319 292.897 747.634 295.043 748.264 296.973C748.934 298.903 749.879 300.557 751.1 301.935C752.36 303.274 753.856 304.317 755.589 305.066C757.361 305.814 759.369 306.188 761.614 306.188C764.331 306.188 767.009 305.676 769.647 304.652C772.286 303.628 774.55 301.935 776.44 299.572L785.478 310.323C784.178 312.174 782.328 313.965 779.926 315.698C777.563 317.431 774.727 318.848 771.42 319.951C768.112 321.014 764.41 321.546 760.315 321.546Z" fill="black"/>
<path d="M721.447 256.452V270.274H682.934V256.452H721.447ZM691.027 240.562H710.933V299.513C710.933 301.206 711.13 302.526 711.524 303.471C711.917 304.376 712.587 305.026 713.532 305.42C714.516 305.774 715.816 305.952 717.43 305.952C718.572 305.952 719.518 305.932 720.266 305.892C721.014 305.814 721.723 305.715 722.392 305.597V319.833C720.699 320.384 718.927 320.798 717.076 321.073C715.225 321.388 713.256 321.546 711.169 321.546C706.916 321.546 703.274 320.876 700.241 319.537C697.248 318.199 694.964 316.092 693.389 313.217C691.814 310.342 691.027 306.601 691.027 301.994V240.562Z" fill="black"/>
<path d="M675.491 256.452V320.364H655.526V256.452H675.491ZM654.345 239.971C654.345 237.136 655.369 234.813 657.416 233.001C659.464 231.19 662.122 230.284 665.391 230.284C668.659 230.284 671.317 231.19 673.365 233.001C675.413 234.813 676.437 237.136 676.437 239.971C676.437 242.807 675.413 245.13 673.365 246.941C671.317 248.753 668.659 249.659 665.391 249.659C662.122 249.659 659.464 248.753 657.416 246.941C655.369 245.13 654.345 242.807 654.345 239.971Z" fill="black"/>
<path d="M623.511 304.829V256.452H643.476V320.364H624.81L623.511 304.829ZM625.401 291.834L630.599 291.716C630.599 296.008 630.087 299.986 629.063 303.648C628.039 307.271 626.523 310.421 624.515 313.099C622.546 315.777 620.104 317.864 617.19 319.36C614.316 320.817 610.988 321.546 607.208 321.546C604.057 321.546 601.163 321.113 598.525 320.246C595.926 319.341 593.681 317.943 591.791 316.052C589.9 314.123 588.424 311.662 587.361 308.669C586.337 305.637 585.825 302.014 585.825 297.8V256.452H605.731V297.918C605.731 299.336 605.908 300.557 606.263 301.58C606.617 302.604 607.129 303.471 607.798 304.18C608.468 304.849 609.295 305.361 610.279 305.715C611.303 306.03 612.465 306.188 613.764 306.188C616.757 306.188 619.1 305.558 620.794 304.298C622.487 303.037 623.668 301.324 624.338 299.159C625.047 296.993 625.401 294.551 625.401 291.834Z" fill="black"/>
<path d="M554.872 344.937V269.86L557.649 256.452H574.897V344.937H554.872ZM515.65 288.999V287.758C515.65 282.915 516.182 278.504 517.245 274.527C518.309 270.51 519.884 267.084 521.971 264.249C524.058 261.374 526.637 259.169 529.709 257.633C532.82 256.058 536.403 255.27 540.459 255.27C544.279 255.27 547.548 256.097 550.265 257.751C553.021 259.405 555.325 261.728 557.176 264.721C559.027 267.675 560.523 271.14 561.665 275.117C562.847 279.095 563.772 283.387 564.441 287.995V289.471C563.772 293.803 562.847 297.898 561.665 301.758C560.523 305.617 559.027 309.043 557.176 312.036C555.325 314.989 553.021 317.313 550.265 319.006C547.508 320.699 544.2 321.546 540.341 321.546C536.325 321.546 532.78 320.739 529.709 319.124C526.637 317.47 524.058 315.186 521.971 312.272C519.884 309.318 518.309 305.873 517.245 301.935C516.182 297.958 515.65 293.645 515.65 288.999ZM535.557 287.758V288.999C535.557 291.401 535.714 293.645 536.029 295.733C536.344 297.78 536.876 299.592 537.624 301.167C538.412 302.742 539.436 303.983 540.696 304.888C541.956 305.755 543.531 306.188 545.421 306.188C548.296 306.188 550.56 305.558 552.214 304.298C553.868 303.037 555.03 301.285 555.699 299.04C556.369 296.756 556.644 294.098 556.526 291.066V286.4C556.566 283.801 556.408 281.517 556.054 279.548C555.699 277.579 555.089 275.944 554.223 274.645C553.396 273.306 552.273 272.302 550.856 271.632C549.438 270.963 547.666 270.628 545.539 270.628C543.689 270.628 542.113 271.061 540.814 271.928C539.554 272.755 538.53 273.936 537.742 275.472C536.994 277.008 536.443 278.819 536.088 280.906C535.734 282.993 535.557 285.277 535.557 287.758Z" fill="black"/>
<path d="M493.559 272.282V320.364H473.652V256.452H492.259L493.559 272.282ZM512.461 255.979L512.106 274.468C511.319 274.389 510.256 274.291 508.917 274.172C507.578 274.054 506.455 273.995 505.55 273.995C503.226 273.995 501.218 274.271 499.525 274.822C497.871 275.334 496.492 276.122 495.39 277.185C494.327 278.209 493.539 279.508 493.027 281.083C492.554 282.659 492.338 284.49 492.377 286.577L488.774 284.214C488.774 279.922 489.188 276.023 490.014 272.518C490.881 268.974 492.102 265.922 493.677 263.363C495.252 260.764 497.162 258.775 499.406 257.397C501.651 255.979 504.171 255.27 506.967 255.27C507.952 255.27 508.917 255.329 509.862 255.447C510.846 255.566 511.713 255.743 512.461 255.979Z" fill="black"/>
<path d="M912.517 420.089V393.745C912.517 391.933 912.262 390.378 911.75 389.078C911.238 387.779 910.43 386.774 909.328 386.066C908.225 385.317 906.748 384.943 904.898 384.943C903.401 384.943 902.121 385.199 901.058 385.711C899.995 386.223 899.188 386.991 898.636 388.015C898.085 389.039 897.809 390.338 897.809 391.913H877.903C877.903 388.96 878.553 386.223 879.852 383.703C881.191 381.143 883.081 378.918 885.523 377.028C888.004 375.138 890.957 373.681 894.383 372.657C897.849 371.594 901.708 371.062 905.961 371.062C911.041 371.062 915.569 371.909 919.547 373.602C923.563 375.295 926.733 377.835 929.057 381.222C931.38 384.569 932.542 388.783 932.542 393.863V420.03C932.542 424.205 932.778 427.375 933.251 429.54C933.723 431.667 934.393 433.537 935.259 435.152V436.156H915.294C914.349 434.187 913.64 431.785 913.167 428.95C912.734 426.075 912.517 423.122 912.517 420.089ZM914.939 397.111L915.057 407.744H906.256C904.405 407.744 902.83 408 901.531 408.512C900.271 409.024 899.247 409.733 898.459 410.638C897.711 411.505 897.16 412.489 896.805 413.592C896.49 414.694 896.333 415.856 896.333 417.077C896.333 418.258 896.608 419.321 897.16 420.267C897.75 421.172 898.538 421.881 899.522 422.393C900.507 422.905 901.609 423.161 902.83 423.161C905.035 423.161 906.906 422.747 908.442 421.921C910.017 421.054 911.218 420.011 912.045 418.79C912.872 417.569 913.285 416.427 913.285 415.364L917.657 423.515C916.869 425.091 915.963 426.685 914.939 428.3C913.955 429.915 912.714 431.411 911.218 432.789C909.761 434.128 907.969 435.231 905.843 436.097C903.716 436.924 901.137 437.338 898.105 437.338C894.167 437.338 890.544 436.53 887.236 434.916C883.967 433.301 881.349 431.057 879.38 428.182C877.411 425.268 876.426 421.921 876.426 418.14C876.426 414.832 877.017 411.879 878.198 409.28C879.419 406.681 881.25 404.475 883.692 402.664C886.133 400.853 889.244 399.474 893.025 398.529C896.805 397.584 901.255 397.111 906.374 397.111H914.939Z" fill="black"/>
<path d="M871.406 372.243V386.066H832.893V372.243H871.406ZM840.985 356.354H860.891V415.305C860.891 416.998 861.088 418.317 861.482 419.262C861.876 420.168 862.545 420.818 863.49 421.212C864.475 421.566 865.774 421.743 867.389 421.743C868.531 421.743 869.476 421.724 870.224 421.684C870.972 421.605 871.681 421.507 872.351 421.389V435.625C870.657 436.176 868.885 436.589 867.035 436.865C865.184 437.18 863.215 437.338 861.128 437.338C856.875 437.338 853.232 436.668 850.2 435.329C847.207 433.99 844.923 431.883 843.348 429.009C841.773 426.134 840.985 422.393 840.985 417.786V356.354Z" fill="black"/>
<path d="M809.206 418.199C809.206 417.097 808.832 416.151 808.083 415.364C807.375 414.537 806.114 413.789 804.303 413.119C802.492 412.41 799.952 411.702 796.683 410.993C793.572 410.323 790.638 409.437 787.882 408.335C785.165 407.232 782.782 405.893 780.734 404.318C778.687 402.743 777.072 400.872 775.891 398.706C774.749 396.54 774.178 394.06 774.178 391.264C774.178 388.546 774.749 385.987 775.891 383.585C777.072 381.143 778.785 378.997 781.03 377.146C783.314 375.256 786.09 373.779 789.359 372.716C792.627 371.613 796.348 371.062 800.523 371.062C806.272 371.062 811.234 371.948 815.408 373.72C819.582 375.453 822.792 377.894 825.036 381.045C827.32 384.156 828.462 387.759 828.462 391.854H808.556C808.556 390.24 808.28 388.862 807.729 387.719C807.217 386.577 806.37 385.711 805.189 385.12C804.008 384.49 802.433 384.175 800.464 384.175C799.085 384.175 797.825 384.431 796.683 384.943C795.581 385.455 794.694 386.164 794.025 387.07C793.356 387.975 793.021 389.039 793.021 390.259C793.021 391.126 793.218 391.913 793.612 392.622C794.045 393.292 794.694 393.922 795.561 394.512C796.427 395.064 797.53 395.576 798.869 396.048C800.208 396.481 801.822 396.875 803.712 397.23C808.005 398.017 812.021 399.14 815.762 400.597C819.503 402.054 822.536 404.121 824.859 406.799C827.222 409.477 828.403 413.08 828.403 417.608C828.403 420.444 827.753 423.063 826.454 425.465C825.154 427.827 823.284 429.915 820.842 431.726C818.401 433.498 815.467 434.876 812.041 435.861C808.615 436.845 804.756 437.338 800.464 437.338C794.36 437.338 789.201 436.255 784.987 434.089C780.774 431.883 777.584 429.127 775.418 425.819C773.292 422.472 772.229 419.085 772.229 415.659H790.776C790.855 417.628 791.328 419.243 792.194 420.503C793.1 421.763 794.301 422.688 795.797 423.279C797.294 423.87 799.026 424.165 800.995 424.165C802.807 424.165 804.303 423.909 805.484 423.397C806.705 422.885 807.631 422.196 808.261 421.33C808.891 420.424 809.206 419.381 809.206 418.199Z" fill="black"/>
<path d="M763.427 372.243V436.156H743.462V372.243H763.427ZM742.28 355.763C742.28 352.928 743.304 350.604 745.352 348.793C747.4 346.981 750.058 346.076 753.326 346.076C756.595 346.076 759.253 346.981 761.301 348.793C763.348 350.604 764.372 352.928 764.372 355.763C764.372 358.598 763.348 360.922 761.301 362.733C759.253 364.545 756.595 365.45 753.326 365.45C750.058 365.45 747.4 364.545 745.352 362.733C743.304 360.922 742.28 358.598 742.28 355.763Z" fill="black"/>
<path d="M730.112 345.426V436.156H710.147V345.426H730.112Z" fill="black"/>
<path d="M678.131 420.621V372.243H698.097V436.156H679.431L678.131 420.621ZM680.022 407.626L685.22 407.508C685.22 411.8 684.708 415.777 683.684 419.44C682.66 423.063 681.144 426.213 679.136 428.891C677.167 431.568 674.725 433.656 671.811 435.152C668.936 436.609 665.609 437.338 661.828 437.338C658.678 437.338 655.784 436.904 653.145 436.038C650.546 435.132 648.302 433.734 646.411 431.844C644.521 429.915 643.044 427.453 641.981 424.461C640.957 421.428 640.445 417.805 640.445 413.592V372.243H660.352V413.71C660.352 415.128 660.529 416.348 660.883 417.372C661.238 418.396 661.75 419.262 662.419 419.971C663.088 420.641 663.915 421.153 664.9 421.507C665.924 421.822 667.085 421.98 668.385 421.98C671.378 421.98 673.721 421.35 675.414 420.089C677.108 418.829 678.289 417.116 678.958 414.95C679.667 412.785 680.022 410.343 680.022 407.626Z" fill="black"/>
<path d="M609.729 420.089V393.745C609.729 391.933 609.473 390.378 608.962 389.078C608.45 387.779 607.642 386.774 606.54 386.066C605.437 385.317 603.96 384.943 602.109 384.943C600.613 384.943 599.333 385.199 598.27 385.711C597.207 386.223 596.399 386.991 595.848 388.015C595.297 389.039 595.021 390.338 595.021 391.913H575.115C575.115 388.96 575.765 386.223 577.064 383.703C578.403 381.143 580.293 378.918 582.735 377.028C585.216 375.138 588.169 373.681 591.595 372.657C595.061 371.594 598.92 371.062 603.173 371.062C608.253 371.062 612.781 371.909 616.759 373.602C620.775 375.295 623.945 377.835 626.269 381.222C628.592 384.569 629.754 388.783 629.754 393.863V420.03C629.754 424.205 629.99 427.375 630.463 429.54C630.935 431.667 631.605 433.537 632.471 435.152V436.156H612.506C611.561 434.187 610.852 431.785 610.379 428.95C609.946 426.075 609.729 423.122 609.729 420.089ZM612.151 397.111L612.269 407.744H603.468C601.617 407.744 600.042 408 598.743 408.512C597.482 409.024 596.459 409.733 595.671 410.638C594.923 411.505 594.371 412.489 594.017 413.592C593.702 414.694 593.544 415.856 593.544 417.077C593.544 418.258 593.82 419.321 594.371 420.267C594.962 421.172 595.75 421.881 596.734 422.393C597.719 422.905 598.821 423.161 600.042 423.161C602.247 423.161 604.118 422.747 605.654 421.921C607.229 421.054 608.43 420.011 609.257 418.79C610.084 417.569 610.497 416.427 610.497 415.364L614.868 423.515C614.081 425.091 613.175 426.685 612.151 428.3C611.167 429.915 609.926 431.411 608.43 432.789C606.973 434.128 605.181 435.231 603.055 436.097C600.928 436.924 598.349 437.338 595.317 437.338C591.379 437.338 587.756 436.53 584.448 434.916C581.179 433.301 578.561 431.057 576.592 428.182C574.623 425.268 573.638 421.921 573.638 418.14C573.638 414.832 574.229 411.879 575.41 409.28C576.631 406.681 578.462 404.475 580.904 402.664C583.345 400.853 586.456 399.474 590.237 398.529C594.017 397.584 598.467 397.111 603.586 397.111H612.151Z" fill="black"/>
<path d="M528.45 384.53V460.729H508.544V372.243H527.092L528.45 384.53ZM567.672 403.432V404.672C567.672 409.319 567.14 413.631 566.077 417.608C565.014 421.586 563.439 425.051 561.352 428.005C559.265 430.958 556.666 433.262 553.555 434.916C550.483 436.53 546.919 437.338 542.863 437.338C539.043 437.338 535.755 436.491 532.999 434.798C530.242 433.104 527.938 430.761 526.087 427.768C524.237 424.776 522.74 421.35 521.598 417.49C520.456 413.631 519.55 409.555 518.881 405.263V403.668C519.55 399.061 520.456 394.788 521.598 390.85C522.74 386.873 524.237 383.407 526.087 380.454C527.938 377.501 530.222 375.197 532.939 373.543C535.696 371.889 538.984 371.062 542.804 371.062C546.86 371.062 550.424 371.83 553.496 373.366C556.607 374.902 559.206 377.107 561.293 379.981C563.419 382.817 565.014 386.223 566.077 390.2C567.14 394.178 567.672 398.588 567.672 403.432ZM547.766 404.672V403.432C547.766 400.951 547.589 398.687 547.234 396.639C546.88 394.552 546.309 392.74 545.521 391.205C544.773 389.669 543.769 388.487 542.509 387.66C541.249 386.833 539.693 386.42 537.842 386.42C535.716 386.42 533.924 386.755 532.467 387.424C531.049 388.054 529.907 389.039 529.041 390.378C528.214 391.677 527.623 393.311 527.269 395.28C526.954 397.21 526.816 399.474 526.855 402.073V406.917C526.777 409.91 527.072 412.548 527.741 414.832C528.411 417.077 529.573 418.829 531.226 420.089C532.88 421.35 535.125 421.98 537.96 421.98C539.851 421.98 541.426 421.546 542.686 420.68C543.946 419.774 544.95 418.534 545.698 416.959C546.447 415.344 546.978 413.493 547.293 411.406C547.608 409.319 547.766 407.074 547.766 404.672Z" fill="black"/>
</svg>
