<?phpxml version="1.0" encoding="utf-8"?>
<!-- Generator: Adobe Illustrator 23.1.1, SVG Export Plug-In . SVG Version: 6.00 Build 0)  -->
<svg version="1.1" id="Camada_4" xmlns="http://www.w3.org/2000/svg" xmlns:xlink="http://www.w3.org/1999/xlink" x="0px" y="0px"
	 viewBox="0 0 40 38" style="enable-background:new 0 0 40 38;" xml:space="preserve">
<style type="text/css">
	.st0{fill:#333333;}
</style>
<path class="st0" d="M38.89,11.28c0,0-0.38-2.66-1.53-3.83c-1.46-1.54-3.11-1.55-3.86-1.64c-5.4-0.39-13.49-0.39-13.49-0.39h-0.02
	c0,0-8.09,0-13.49,0.39c-0.75,0.09-2.4,0.1-3.86,1.64c-1.15,1.17-1.53,3.83-1.53,3.83s-0.38,3.12-0.38,6.25v2.93
	c0,3.13,0.38,6.25,0.38,6.25s0.38,2.66,1.53,3.83c1.47,1.54,3.39,1.49,4.25,1.65C9.98,32.48,20,32.58,20,32.58s8.1-0.01,13.49-0.4
	c0.75-0.09,2.4-0.1,3.86-1.64c1.15-1.17,1.53-3.83,1.53-3.83s0.38-3.13,0.38-6.25v-2.93C39.27,14.4,38.89,11.28,38.89,11.28z
	 M16.02,24.01V13.16l10.41,5.44L16.02,24.01z"/>
</svg>