<?xml version="1.0" encoding="utf-8"?>
<!-- Generator: Adobe Illustrator 26.0.1, SVG Export Plug-In . SVG Version: 6.00 Build 0)  -->
<svg version="1.1" id="Layer_1" xmlns="http://www.w3.org/2000/svg" xmlns:xlink="http://www.w3.org/1999/xlink" x="0px" y="0px"
	 viewBox="0 0 244.5 51.2" style="enable-background:new 0 0 244.5 51.2;" xml:space="preserve">
<style type="text/css">
	.st0{fill-rule:evenodd;clip-rule:evenodd;}
</style>
<g>
	<polygon points="50.7,40.2 52.5,40.2 52.5,34.3 58.1,34.3 58.1,32.8 52.5,32.8 52.5,28.8 58.4,28.8 58.4,27.2 50.7,27.2 	"/>
	<path d="M64.8,29l2.4,6.4h-4.9L64.8,29z M58.4,40.2h1.9l1.4-3.4h6l1.4,3.4h2l-5.3-13h-1.9L58.4,40.2z"/>
	<path d="M72.4,27.2v7.9c0,1.9,0.4,2.7,0.8,3.3c1.2,1.7,3.4,2.1,4.6,2.1c0.9,0,2.9-0.2,4.2-1.8c1-1.3,1.1-2.8,1.1-3.5v-8h-1.7v8
		c0,0.9,0,3.7-3.5,3.7c-0.9,0-2.2-0.2-3-1.3c-0.3-0.4-0.6-1-0.6-2.3v-8.1H72.4z"/>
	<path d="M85.6,27.2v7.9c0,1.9,0.4,2.7,0.8,3.3c1.2,1.7,3.4,2.1,4.6,2.1c0.9,0,2.9-0.2,4.2-1.8c1-1.3,1.1-2.8,1.1-3.5v-8h-1.7v8
		c0,0.9,0,3.7-3.5,3.7c-0.9,0-2.2-0.2-3-1.3c-0.3-0.4-0.6-1-0.6-2.3v-8.1H85.6z"/>
	<path d="M98.5,36.4c0,0.6,0,1.7,0.8,2.6c1,1.3,3,1.5,4,1.5c3.3,0,5.1-1.8,5.1-4.1c0-0.5-0.1-1.8-1.3-2.6c-0.8-0.5-1.1-0.6-4.2-1.4
		c-1.6-0.4-2.3-0.8-2.3-1.9c0-1.3,1.1-2.1,2.9-2.1c1.3,0,2.6,0.4,2.7,2h1.9c0-0.5-0.1-1.4-0.8-2.2c-1-1.1-2.8-1.3-3.7-1.3
		c-2.5,0-5,1.2-5,3.8c0,0.9,0.3,1.8,1.4,2.6c0.7,0.5,1.5,0.7,3.5,1.2c1.8,0.5,3,0.7,3,2.2c0,0.6-0.3,2.3-3,2.3c-3,0-3.1-1.7-3.1-2.6
		H98.5z"/>
	<path d="M112.5,28.7h2.5c0.9,0,2.6,0,2.6,2c0,2.1-1.8,2.2-3,2.2h-2.1V28.7z M110.7,40.2h1.8v-5.8h2.1c2.3,0,3.2-0.4,3.9-1.1
		c0.7-0.7,1-1.6,1-2.5c0-1-0.3-1.9-1-2.5c-0.9-1-2-1-3.6-1h-4.4V40.2z"/>
	<path class="st0" d="M43.3,33.3l-5.7,0.5l3,4.9l-5.6-1.3l1.3,5.6l-4.9-3l-0.5,5.7L27,41.5l-2.2,5.3l-2.3-5.3l-3.8,4.3l-0.5-5.7
		l-4.9,3l1.3-5.6l-5.6,1.3l3-4.9l-5.7-0.6l4.3-3.7l-5.3-2.2l5.3-2.3l-4.3-3.8l5.7-0.5l-3-4.9l5.6,1.3l-1.3-5.6l4.9,3l0.6-5.7
		l3.7,4.3l2.2-5.3L27,13l3.8-4.3l0.5,5.7l4.9-3L34.9,17l5.6-1.3l-3,4.9l5.7,0.5L39,25l5.3,2.2l-5.3,2.3L43.3,33.3z M15.5,14.6
		c0.8,0.3,1.8,0.2,2.6-0.2c0.8-0.4,1.4-1.2,1.7-2c0.7,0.5,1.6,0.8,2.6,0.6c0.9-0.1,1.7-0.7,2.3-1.4c0.5,0.7,1.3,1.2,2.2,1.4
		c0.9,0.1,1.9-0.1,2.6-0.6c0.3,0.8,0.9,1.6,1.7,2c0.8,0.4,1.8,0.5,2.6,0.2c0,0.9,0.3,1.8,1,2.5c0.7,0.7,1.6,1,2.5,1
		c-0.3,0.8-0.2,1.8,0.2,2.6c0.4,0.8,1.2,1.4,2,1.7c-0.5,0.7-0.8,1.6-0.6,2.6c0.2,0.9,0.7,1.7,1.4,2.3c-0.7,0.5-1.2,1.3-1.4,2.3
		c-0.2,0.9,0.1,1.9,0.6,2.6c-0.8,0.3-1.6,0.9-2,1.7c-0.4,0.9-0.5,1.8-0.2,2.6c-0.9,0-1.8,0.3-2.5,1c-0.7,0.7-1,1.6-1,2.5
		c-0.8-0.3-1.8-0.2-2.6,0.2c-0.9,0.4-1.4,1.2-1.7,2c-0.7-0.5-1.6-0.8-2.6-0.6c-0.9,0.1-1.7,0.7-2.3,1.4c-0.5-0.7-1.3-1.2-2.2-1.4
		c-0.9-0.2-1.9,0.1-2.6,0.6c-0.3-0.8-0.9-1.6-1.7-2c-0.8-0.4-1.8-0.5-2.6-0.2c0-0.9-0.3-1.8-1-2.5c-0.7-0.7-1.6-1-2.5-1
		c0.3-0.8,0.2-1.8-0.2-2.7c-0.4-0.9-1.2-1.5-2-1.7c0.5-0.7,0.8-1.6,0.6-2.6c-0.1-0.9-0.7-1.7-1.4-2.3c0.7-0.5,1.2-1.3,1.4-2.3
		c0.2-0.9-0.1-1.9-0.6-2.6c0.8-0.3,1.6-0.9,2-1.7c0.4-0.8,0.5-1.8,0.2-2.6c0.9,0,1.8-0.3,2.5-1C15.2,16.4,15.5,15.5,15.5,14.6z"/>
	<polygon points="125.6,31.8 126.2,31.8 126.2,29.7 128.1,29.7 128.1,29.2 126.2,29.2 126.2,27.8 128.3,27.8 128.3,27.3 125.6,27.3 
			"/>
	<path d="M130.7,30.3c0,0.4,0,0.6-0.2,0.8c-0.1,0.2-0.4,0.3-0.7,0.3c-0.5,0-0.7-0.3-0.7-0.5c0-0.6,0.9-0.6,1.1-0.6
		C130.5,30.2,130.6,30.2,130.7,30.3 M131.3,31.8c0-0.3-0.1-0.7-0.1-0.8l0-1.5c0-0.1,0-0.3-0.1-0.5c-0.2-0.3-0.7-0.5-1.1-0.5
		c-0.3,0-0.8,0.1-1,0.3c-0.2,0.2-0.2,0.4-0.2,0.6h0.6c0-0.1,0-0.5,0.6-0.5c0.2,0,0.4,0,0.5,0.2c0.1,0.1,0.1,0.3,0.1,0.7
		c-0.2,0-0.3,0-0.4,0c-0.3,0-0.8,0-1.1,0.2c-0.5,0.3-0.6,0.7-0.6,0.9c0,0.5,0.4,0.9,1.1,0.9c0.3,0,0.7,0,1-0.6c0,0.2,0,0.3,0.1,0.5
		H131.3z"/>
	<path d="M134.7,29.7c0-0.2,0-0.4-0.3-0.7c-0.3-0.3-0.8-0.4-1-0.4c-0.6,0-1.4,0.4-1.4,1.7c0,0.7,0.2,1,0.4,1.2
		c0.3,0.4,0.8,0.4,1,0.4c0.8,0,1.2-0.5,1.3-1.1h-0.6c0,0.3-0.2,0.7-0.7,0.7c-0.6,0-0.8-0.6-0.8-1.2c0-0.2,0-1.2,0.8-1.2
		c0.6,0,0.6,0.5,0.6,0.7H134.7z"/>
	<path d="M135.4,28.6v2.1c0,0.6,0.4,1.1,1.1,1.1c0.7,0,0.9-0.4,1-0.6l0,0.5h0.6c0-0.2,0-0.5,0-0.6v-2.6h-0.6v1.8
		c0,0.2,0,0.4-0.1,0.6c-0.2,0.3-0.4,0.4-0.7,0.4c-0.6,0-0.7-0.4-0.7-0.7v-2H135.4z"/>
	<rect x="139.2" y="27.3" width="0.6" height="4.5"/>
	<path d="M143.1,30.2c0,0.2,0,1.3-0.9,1.3c-0.7,0-0.9-0.6-0.9-1.2c0-0.2,0-1.3,0.9-1.3c0.3,0,0.6,0.2,0.7,0.3
		C143,29.5,143.1,29.7,143.1,30.2 M143.1,29.1c-0.1-0.1-0.3-0.5-1-0.5c-0.7,0-1.4,0.5-1.4,1.7c0,1.4,0.9,1.6,1.4,1.6
		c0.2,0,0.5-0.1,0.8-0.2c0.2-0.1,0.2-0.2,0.3-0.3l0,0.5h0.6c0-0.2,0-0.4,0-0.5v-4h-0.6V29.1z"/>
	<path d="M146.6,30.3c0,0.4,0,0.6-0.2,0.8c-0.1,0.2-0.4,0.3-0.7,0.3c-0.5,0-0.7-0.3-0.7-0.5c0-0.6,0.9-0.6,1.1-0.6
		C146.4,30.2,146.5,30.2,146.6,30.3 M147.2,31.8c0-0.3-0.1-0.7-0.1-0.8l0-1.5c0-0.1,0-0.3-0.1-0.5c-0.2-0.3-0.7-0.5-1.1-0.5
		c-0.3,0-0.8,0.1-1,0.3c-0.2,0.2-0.2,0.4-0.2,0.6h0.6c0-0.1,0-0.5,0.6-0.5c0.2,0,0.4,0,0.5,0.2c0.1,0.1,0.1,0.3,0.1,0.7
		c-0.2,0-0.3,0-0.4,0c-0.3,0-0.8,0-1.1,0.2c-0.5,0.3-0.6,0.7-0.6,0.9c0,0.5,0.4,0.9,1.1,0.9c0.3,0,0.7,0,1-0.6c0,0.2,0,0.3,0.1,0.5
		H147.2z"/>
	<path d="M150.4,30.2c0,0.2,0,1.3-0.9,1.3c-0.7,0-0.9-0.6-0.9-1.2c0-0.2,0-1.3,0.9-1.3c0.3,0,0.6,0.2,0.7,0.3
		C150.3,29.5,150.4,29.7,150.4,30.2 M150.4,29.1c-0.1-0.1-0.3-0.5-1-0.5c-0.7,0-1.4,0.5-1.4,1.7c0,1.4,0.9,1.6,1.4,1.6
		c0.2,0,0.5-0.1,0.8-0.2c0.2-0.1,0.2-0.2,0.3-0.3l0,0.5h0.6c0-0.2,0-0.4,0-0.5v-4h-0.6V29.1z"/>
	<path d="M152.4,29.9c0-0.7,0.5-0.9,0.9-0.9c0.7,0,0.8,0.6,0.8,0.9H152.4z M154.7,30.3c0-0.5,0-1.8-1.4-1.8c-0.2,0-0.6,0-0.9,0.2
		c-0.5,0.3-0.6,0.9-0.6,1.5c0,1,0.5,1.6,1.5,1.6c0.6,0,0.9-0.3,1.1-0.4c0.2-0.2,0.3-0.5,0.3-0.7H154c-0.1,0.5-0.4,0.7-0.7,0.7
		c-0.6,0-0.9-0.5-0.9-1.1H154.7z"/>
	<path d="M159.6,30.2c0,0.2,0,1.3-0.9,1.3c-0.7,0-0.9-0.6-0.9-1.2c0-0.2,0-1.3,0.9-1.3c0.3,0,0.6,0.2,0.7,0.3
		C159.4,29.5,159.6,29.7,159.6,30.2 M159.5,29.1c-0.1-0.1-0.3-0.5-1-0.5c-0.7,0-1.4,0.5-1.4,1.7c0,1.4,0.9,1.6,1.4,1.6
		c0.2,0,0.5-0.1,0.8-0.2c0.2-0.1,0.2-0.2,0.3-0.3l0,0.5h0.6c0-0.2,0-0.4,0-0.5v-4h-0.6V29.1z"/>
	<path d="M161.6,29.9c0-0.7,0.5-0.9,0.9-0.9c0.7,0,0.8,0.6,0.8,0.9H161.6z M163.8,30.3c0-0.5,0-1.8-1.4-1.8c-0.2,0-0.6,0-0.9,0.2
		c-0.5,0.3-0.6,0.9-0.6,1.5c0,1,0.5,1.6,1.5,1.6c0.6,0,0.9-0.3,1.1-0.4c0.2-0.2,0.3-0.5,0.3-0.7h-0.6c-0.1,0.5-0.4,0.7-0.7,0.7
		c-0.6,0-0.9-0.5-0.9-1.1H163.8z"/>
	<path d="M167.9,27.9l0.8,2.2H167L167.9,27.9z M165.7,31.8h0.6l0.5-1.2h2.1l0.5,1.2h0.7l-1.8-4.5h-0.7L165.7,31.8z"/>
	<path d="M170.7,31.8h0.6v-1.7c0-0.5,0.2-1,0.9-1c0.1,0,0.1,0,0.2,0c0,0,0.1,0,0.1,0v-0.6c-0.1,0-0.2,0-0.4,0
		c-0.3,0-0.6,0.2-0.8,0.6l0-0.6h-0.6c0,0.2,0,0.4,0,0.6V31.8z"/>
	<path d="M175.3,30.3c0,0.6-0.1,1.2-0.9,1.2c-0.3,0-0.5-0.1-0.7-0.3c-0.2-0.3-0.3-0.8-0.3-1c0-0.2,0-1.1,0.9-1.1
		C175.3,29,175.3,30,175.3,30.3 M175.3,28.6l0,0.5c-0.1-0.2-0.4-0.6-1.1-0.6c-0.7,0-1.3,0.5-1.3,1.6c0,1.2,0.7,1.7,1.4,1.7
		c0.1,0,0.4,0,0.7-0.2c0.1-0.1,0.2-0.2,0.3-0.3V33h0.6v-3.8c0-0.1,0-0.4,0-0.5H175.3z"/>
	<path d="M176.9,28.6v2.1c0,0.6,0.4,1.1,1.1,1.1c0.7,0,0.9-0.4,1-0.6l0,0.5h0.6c0-0.2,0-0.5,0-0.6v-2.6H179v1.8c0,0.2,0,0.4-0.1,0.6
		c-0.2,0.3-0.4,0.4-0.7,0.4c-0.6,0-0.7-0.4-0.7-0.7v-2H176.9z"/>
	<path d="M180.6,31.8h0.6v-3.1h-0.6V31.8z M180.6,27.9h0.7v-0.6h-0.7V27.9z"/>
	<path d="M181.9,29.1h0.6v2.1c0,0.5,0.3,0.7,0.8,0.7c0.2,0,0.4,0,0.5,0v-0.5c-0.1,0-0.2,0-0.3,0c-0.4,0-0.4-0.3-0.4-0.4v-1.9h0.7
		v-0.4H183v-0.8l-0.6,0.2v0.7h-0.6V29.1z"/>
	<path d="M184.8,29.9c0-0.7,0.5-0.9,0.9-0.9c0.7,0,0.8,0.6,0.8,0.9H184.8z M187.1,30.3c0-0.5,0-1.8-1.4-1.8c-0.2,0-0.6,0-0.9,0.2
		c-0.5,0.3-0.6,0.9-0.6,1.5c0,1,0.5,1.6,1.5,1.6c0.6,0,0.9-0.3,1.1-0.4c0.2-0.2,0.3-0.5,0.3-0.7h-0.6c-0.1,0.5-0.4,0.7-0.7,0.7
		c-0.6,0-0.9-0.5-0.9-1.1H187.1z"/>
	<path d="M187.5,29.1h0.6v2.1c0,0.5,0.3,0.7,0.8,0.7c0.2,0,0.4,0,0.5,0v-0.5c-0.1,0-0.2,0-0.3,0c-0.4,0-0.4-0.3-0.4-0.4v-1.9h0.7
		v-0.4h-0.7v-0.8L188,28v0.7h-0.6V29.1z"/>
	<path d="M190,28.6v2.1c0,0.6,0.4,1.1,1.1,1.1c0.7,0,0.9-0.4,1-0.6l0,0.5h0.6c0-0.2,0-0.5,0-0.6v-2.6h-0.6v1.8c0,0.2,0,0.4-0.1,0.6
		c-0.2,0.3-0.4,0.4-0.7,0.4c-0.6,0-0.7-0.4-0.7-0.7v-2H190z"/>
	<path d="M193.7,31.8h0.6v-1.7c0-0.5,0.2-1,0.9-1c0.1,0,0.1,0,0.2,0c0,0,0.1,0,0.1,0v-0.6c-0.1,0-0.2,0-0.4,0
		c-0.3,0-0.6,0.2-0.8,0.6l0-0.6h-0.6c0,0.2,0,0.4,0,0.6V31.8z"/>
	<path d="M198,30.3c0,0.4,0,0.6-0.2,0.8c-0.1,0.2-0.4,0.3-0.7,0.3c-0.5,0-0.7-0.3-0.7-0.5c0-0.6,0.9-0.6,1.1-0.6
		C197.8,30.2,197.9,30.2,198,30.3 M198.6,31.8c0-0.3-0.1-0.7-0.1-0.8l0-1.5c0-0.1,0-0.3-0.1-0.5c-0.2-0.3-0.7-0.5-1.1-0.5
		c-0.3,0-0.8,0.1-1,0.3c-0.2,0.2-0.2,0.4-0.2,0.6h0.6c0-0.1,0-0.5,0.6-0.5c0.2,0,0.4,0,0.5,0.2c0.1,0.1,0.1,0.3,0.1,0.7
		c-0.2,0-0.3,0-0.4,0c-0.3,0-0.8,0-1.1,0.2c-0.5,0.3-0.6,0.7-0.6,0.9c0,0.5,0.4,0.9,1.1,0.9c0.3,0,0.7,0,1-0.6c0,0.2,0,0.3,0.1,0.5
		H198.6z"/>
	<path d="M201.8,29.9c0-0.7,0.5-0.9,0.9-0.9c0.7,0,0.8,0.6,0.8,0.9H201.8z M204.1,30.3c0-0.5,0-1.8-1.4-1.8c-0.2,0-0.6,0-0.9,0.2
		c-0.5,0.3-0.6,0.9-0.6,1.5c0,1,0.5,1.6,1.5,1.6c0.6,0,0.9-0.3,1.1-0.4c0.2-0.2,0.3-0.5,0.3-0.7h-0.6c-0.1,0.5-0.4,0.7-0.7,0.7
		c-0.6,0-0.9-0.5-0.9-1.1H204.1z"/>
	<path d="M206.8,27.3V30c0,0.7,0.1,0.9,0.3,1.1c0.4,0.6,1.2,0.7,1.6,0.7c0.3,0,1-0.1,1.5-0.6c0.4-0.5,0.4-1,0.4-1.2v-2.8h-0.6V30
		c0,0.3,0,1.3-1.2,1.3c-0.3,0-0.8-0.1-1-0.4c-0.1-0.1-0.2-0.3-0.2-0.8v-2.8H206.8z"/>
	<path d="M211.5,31.8h0.6v-1.7c0-0.5,0.2-1,0.9-1c0.1,0,0.1,0,0.2,0c0,0,0.1,0,0.1,0v-0.6c-0.1,0-0.2,0-0.4,0
		c-0.3,0-0.6,0.2-0.8,0.6l0-0.6h-0.6c0,0.2,0,0.4,0,0.6V31.8z"/>
	<path d="M216.3,30.2c0,0.5-0.2,1.2-0.9,1.2c-0.9,0-0.9-1-0.9-1.2c0-0.2,0-1.3,0.9-1.3C216.2,29,216.3,29.9,216.3,30.2 M214.5,27.3
		h-0.6v4l0,0.6h0.6l0-0.5c0.1,0.1,0.1,0.2,0.3,0.3c0.3,0.2,0.6,0.2,0.7,0.2c0.4,0,0.9-0.2,1.1-0.5c0.2-0.2,0.3-0.5,0.3-1.1
		c0-0.7-0.2-1-0.4-1.2c-0.3-0.3-0.7-0.4-1-0.4c-0.7,0-0.9,0.4-1,0.5V27.3z"/>
	<path d="M219.6,30.3c0,0.4,0,0.6-0.2,0.8c-0.1,0.2-0.4,0.3-0.7,0.3c-0.5,0-0.7-0.3-0.7-0.5c0-0.6,0.9-0.6,1.1-0.6
		C219.4,30.2,219.5,30.2,219.6,30.3 M220.2,31.8c0-0.3-0.1-0.7-0.1-0.8l0-1.5c0-0.1,0-0.3-0.1-0.5c-0.2-0.3-0.7-0.5-1.1-0.5
		c-0.3,0-0.8,0.1-1,0.3c-0.2,0.2-0.2,0.4-0.2,0.6h0.6c0-0.1,0-0.5,0.6-0.5c0.2,0,0.4,0,0.5,0.2c0.1,0.1,0.1,0.3,0.1,0.7
		c-0.2,0-0.3,0-0.4,0c-0.3,0-0.8,0-1.1,0.2c-0.5,0.3-0.6,0.7-0.6,0.9c0,0.5,0.4,0.9,1.1,0.9c0.3,0,0.7,0,1-0.6c0,0.2,0,0.3,0.1,0.5
		H220.2z"/>
	<path d="M221.3,31.8h0.6V30c0-0.6,0.4-0.9,0.8-0.9c0.2,0,0.4,0.1,0.6,0.2c0.1,0.1,0.2,0.3,0.2,0.5v2h0.6v-2.1c0-1-0.9-1.1-1.1-1.1
		c-0.7,0-0.9,0.4-1,0.6l0-0.5h-0.6l0,0.4V31.8z"/>
	<path d="M225.1,31.8h0.6v-3.1h-0.6V31.8z M225,27.9h0.7v-0.6H225V27.9z"/>
	<path d="M226.5,30.9c0,0.8,0.6,1,1.2,1c0.3,0,0.7,0,0.9-0.2c0.2-0.1,0.4-0.4,0.4-0.8c0-0.2-0.1-0.4-0.2-0.6
		c-0.2-0.2-0.4-0.2-1.2-0.4c-0.2,0-0.4-0.1-0.4-0.4c0-0.5,0.6-0.5,0.6-0.5c0.2,0,0.6,0,0.6,0.5h0.6c0-0.1,0-0.3-0.1-0.5
		c-0.2-0.4-0.7-0.5-1.1-0.5c-0.7,0-1.2,0.4-1.2,1c0,0.7,0.6,0.8,1.2,0.9c0.5,0.1,0.7,0.2,0.7,0.5c0,0.1,0,0.2-0.1,0.3
		c-0.1,0.2-0.3,0.2-0.6,0.2c-0.6,0-0.7-0.3-0.7-0.6H226.5z"/>
	<path d="M229.9,31.8h0.6V30c0-0.2,0-0.5,0.1-0.6c0.1-0.1,0.3-0.3,0.7-0.3c0.5,0,0.7,0.3,0.7,0.7v2.1h0.6V30c0-0.1,0-0.5,0.1-0.7
		c0.1-0.1,0.3-0.3,0.7-0.3c0.3,0,0.5,0.1,0.6,0.3c0.1,0.1,0.1,0.2,0.1,0.5v2h0.6v-2.1c0-0.9-0.7-1.1-1.2-1.1c-0.7,0-1,0.4-1.1,0.6
		c-0.1-0.2-0.3-0.6-1-0.6c-0.3,0-0.7,0-1,0.5v-0.5h-0.6l0,0.4V31.8z"/>
	<path d="M236.2,30.2c0-1,0.6-1.2,1-1.2c0.6,0,0.9,0.4,0.9,1.2c0,0.9-0.5,1.3-1,1.3C236.5,31.5,236.2,30.9,236.2,30.2 M235.6,30.3
		c0,0.9,0.5,1.6,1.5,1.6c1.1,0,1.6-0.8,1.6-1.7c0-0.7-0.3-1.6-1.5-1.6C236,28.6,235.6,29.5,235.6,30.3z"/>
	<path d="M125.6,35.7v2.8c0,0.7,0.1,0.9,0.3,1.1c0.4,0.6,1.2,0.7,1.6,0.7c0.3,0,1-0.1,1.5-0.6c0.4-0.5,0.4-1,0.4-1.2v-2.8h-0.6v2.8
		c0,0.3,0,1.3-1.2,1.3c-0.3,0-0.8-0.1-1-0.4c-0.1-0.1-0.2-0.3-0.2-0.8v-2.8H125.6z"/>
	<path d="M130.3,40.2h0.6v-1.8c0-0.6,0.4-0.9,0.8-0.9c0.2,0,0.4,0.1,0.6,0.2c0.1,0.1,0.2,0.3,0.2,0.5v2h0.6v-2.1
		c0-1-0.9-1.1-1.1-1.1c-0.7,0-0.9,0.4-1,0.6l0-0.5h-0.6l0,0.4V40.2z"/>
	<path d="M134.1,40.2h0.6v-3.1h-0.6V40.2z M134,36.4h0.7v-0.6H134V36.4z"/>
	<polygon points="136.8,40.2 137.4,40.2 138.8,37.1 138.1,37.1 137.1,39.6 136.1,37.1 135.5,37.1 	"/>
	<path d="M139.8,38.4c0-0.7,0.5-0.9,0.9-0.9c0.7,0,0.8,0.6,0.8,0.9H139.8z M142.1,38.8c0-0.5,0-1.8-1.4-1.8c-0.2,0-0.6,0-0.9,0.2
		c-0.5,0.3-0.6,0.9-0.6,1.5c0,1,0.5,1.6,1.5,1.6c0.6,0,0.9-0.3,1.1-0.4c0.2-0.2,0.3-0.5,0.3-0.7h-0.6c-0.1,0.5-0.4,0.7-0.7,0.7
		c-0.6,0-0.9-0.5-0.9-1.1H142.1z"/>
	<path d="M142.9,40.2h0.6v-1.7c0-0.5,0.2-1,0.9-1c0.1,0,0.1,0,0.2,0c0,0,0.1,0,0.1,0v-0.6c-0.1,0-0.2,0-0.4,0
		c-0.3,0-0.6,0.2-0.8,0.6l0-0.6h-0.6c0,0.2,0,0.4,0,0.6V40.2z"/>
	<path d="M145.2,39.3c0,0.8,0.6,1,1.2,1c0.3,0,0.7,0,0.9-0.2c0.2-0.1,0.4-0.4,0.4-0.8c0-0.2-0.1-0.4-0.2-0.6
		c-0.2-0.2-0.4-0.2-1.2-0.4c-0.2,0-0.4-0.1-0.4-0.4c0-0.5,0.6-0.5,0.6-0.5c0.2,0,0.6,0,0.6,0.5h0.6c0-0.1,0-0.3-0.1-0.5
		c-0.2-0.4-0.7-0.5-1.1-0.5c-0.7,0-1.2,0.4-1.2,1c0,0.7,0.6,0.8,1.2,0.9c0.5,0.1,0.7,0.2,0.7,0.5c0,0.1,0,0.2-0.1,0.3
		c-0.1,0.2-0.3,0.2-0.6,0.2c-0.6,0-0.7-0.3-0.7-0.6H145.2z"/>
	<path d="M148.6,40.2h0.6v-3.1h-0.6V40.2z M148.5,36.4h0.7v-0.6h-0.7V36.4z"/>
	<path d="M152.5,38.6c0,0.2,0,1.3-0.9,1.3c-0.7,0-0.9-0.6-0.9-1.2c0-0.2,0-1.3,0.9-1.3c0.3,0,0.6,0.2,0.7,0.3
		C152.4,37.9,152.5,38.2,152.5,38.6 M152.5,37.5c-0.1-0.1-0.3-0.5-1-0.5c-0.7,0-1.4,0.5-1.4,1.7c0,1.4,0.9,1.6,1.4,1.6
		c0.2,0,0.5-0.1,0.8-0.2c0.2-0.1,0.2-0.2,0.3-0.3l0,0.5h0.6c0-0.2,0-0.4,0-0.5v-4h-0.6V37.5z"/>
	<path d="M156,38.7c0,0.4,0,0.6-0.2,0.8c-0.1,0.2-0.4,0.3-0.7,0.3c-0.5,0-0.7-0.3-0.7-0.5c0-0.6,0.9-0.6,1.1-0.6
		C155.8,38.7,155.9,38.7,156,38.7 M156.6,40.2c0-0.3-0.1-0.7-0.1-0.8l0-1.5c0-0.1,0-0.3-0.1-0.5c-0.2-0.3-0.7-0.5-1.1-0.5
		c-0.3,0-0.8,0.1-1,0.3c-0.2,0.2-0.2,0.4-0.2,0.6h0.6c0-0.1,0-0.5,0.6-0.5c0.2,0,0.4,0,0.5,0.2c0.1,0.1,0.1,0.3,0.1,0.7
		c-0.2,0-0.3,0-0.4,0c-0.3,0-0.8,0-1.1,0.2c-0.5,0.3-0.6,0.7-0.6,0.9c0,0.5,0.4,0.9,1.1,0.9c0.3,0,0.7,0,1-0.6c0,0.2,0,0.3,0.1,0.5
		H156.6z"/>
	<path d="M159.8,38.6c0,0.2,0,1.3-0.9,1.3c-0.7,0-0.9-0.6-0.9-1.2c0-0.2,0-1.3,0.9-1.3c0.3,0,0.6,0.2,0.7,0.3
		C159.7,37.9,159.8,38.2,159.8,38.6 M159.8,37.5c-0.1-0.1-0.3-0.5-1-0.5c-0.7,0-1.4,0.5-1.4,1.7c0,1.4,0.9,1.6,1.4,1.6
		c0.2,0,0.5-0.1,0.8-0.2c0.2-0.1,0.2-0.2,0.3-0.3l0,0.5h0.6c0-0.2,0-0.4,0-0.5v-4h-0.6V37.5z"/>
	<path d="M161.8,38.4c0-0.7,0.5-0.9,0.9-0.9c0.7,0,0.8,0.6,0.8,0.9H161.8z M164.1,38.8c0-0.5,0-1.8-1.4-1.8c-0.2,0-0.6,0-0.9,0.2
		c-0.5,0.3-0.6,0.9-0.6,1.5c0,1,0.5,1.6,1.5,1.6c0.6,0,0.9-0.3,1.1-0.4c0.2-0.2,0.3-0.5,0.3-0.7h-0.6c-0.1,0.5-0.4,0.7-0.7,0.7
		c-0.6,0-0.9-0.5-0.9-1.1H164.1z"/>
	<path d="M169,38.6c0,0.2,0,1.3-0.9,1.3c-0.7,0-0.9-0.6-0.9-1.2c0-0.2,0-1.3,0.9-1.3c0.3,0,0.6,0.2,0.7,0.3
		C168.9,37.9,169,38.2,169,38.6 M168.9,37.5c-0.1-0.1-0.3-0.5-1-0.5c-0.7,0-1.4,0.5-1.4,1.7c0,1.4,0.9,1.6,1.4,1.6
		c0.2,0,0.5-0.1,0.8-0.2c0.2-0.1,0.2-0.2,0.3-0.3l0,0.5h0.6c0-0.2,0-0.4,0-0.5v-4h-0.6V37.5z"/>
	<path d="M171,38.4c0-0.7,0.5-0.9,0.9-0.9c0.7,0,0.8,0.6,0.8,0.9H171z M173.2,38.8c0-0.5,0-1.8-1.4-1.8c-0.2,0-0.6,0-0.9,0.2
		c-0.5,0.3-0.6,0.9-0.6,1.5c0,1,0.5,1.6,1.5,1.6c0.6,0,0.9-0.3,1.1-0.4c0.2-0.2,0.3-0.5,0.3-0.7h-0.6c-0.1,0.5-0.4,0.7-0.7,0.7
		c-0.6,0-0.9-0.5-0.9-1.1H173.2z"/>
	<path d="M175.7,38.9c0,0.2,0,0.6,0.3,0.9c0.4,0.5,1.1,0.5,1.4,0.5c1.2,0,1.8-0.6,1.8-1.4c0-0.2,0-0.6-0.5-0.9
		c-0.3-0.2-0.4-0.2-1.5-0.5c-0.6-0.1-0.8-0.3-0.8-0.7c0-0.5,0.4-0.7,1-0.7c0.4,0,0.9,0.1,1,0.7h0.7c0-0.2,0-0.5-0.3-0.8
		c-0.4-0.4-1-0.4-1.3-0.4c-0.9,0-1.7,0.4-1.7,1.3c0,0.3,0.1,0.6,0.5,0.9c0.2,0.2,0.5,0.2,1.2,0.4c0.6,0.2,1,0.3,1,0.8
		c0,0.2-0.1,0.8-1.1,0.8c-1,0-1.1-0.6-1.1-0.9H175.7z"/>
	<path d="M180.5,36.4c0.1-0.2,0.1-0.2,0.2-0.2c0,0,0.2,0,0.3,0.1c0.2,0.1,0.3,0.1,0.4,0.1c0.2,0,0.5-0.2,0.5-0.6h-0.3
		c0,0.1-0.1,0.2-0.2,0.2c-0.1,0-0.1,0-0.2,0c-0.3-0.1-0.4-0.1-0.5-0.1c-0.2,0-0.3,0.1-0.4,0.2c-0.1,0.1-0.1,0.3-0.2,0.4H180.5z
		 M181.8,38.7c0,0.4,0,0.6-0.2,0.8c-0.1,0.2-0.4,0.3-0.7,0.3c-0.5,0-0.7-0.3-0.7-0.5c0-0.6,0.9-0.6,1.1-0.6
		C181.6,38.7,181.7,38.7,181.8,38.7z M182.4,40.2c0-0.3-0.1-0.7-0.1-0.8l0-1.5c0-0.1,0-0.3-0.1-0.5c-0.2-0.3-0.7-0.5-1.1-0.5
		c-0.3,0-0.8,0.1-1,0.3c-0.2,0.2-0.2,0.4-0.2,0.6h0.6c0-0.1,0-0.5,0.6-0.5c0.2,0,0.4,0,0.5,0.2c0.1,0.1,0.1,0.3,0.1,0.7
		c-0.2,0-0.3,0-0.4,0c-0.3,0-0.8,0-1.1,0.2c-0.5,0.3-0.6,0.7-0.6,0.9c0,0.5,0.4,0.9,1.1,0.9c0.3,0,0.7,0,1-0.6c0,0.2,0,0.3,0.1,0.5
		H182.4z"/>
	<path d="M183.8,38.7c0-1,0.6-1.2,1-1.2c0.6,0,0.9,0.4,0.9,1.2c0,0.9-0.5,1.3-1,1.3C184.1,39.9,183.8,39.3,183.8,38.7 M183.2,38.7
		c0,0.9,0.5,1.6,1.5,1.6c1.1,0,1.6-0.8,1.6-1.7c0-0.7-0.3-1.6-1.5-1.6C183.6,37,183.2,37.9,183.2,38.7z"/>
	<path d="M189.7,36.2h0.9c0.3,0,0.9,0,0.9,0.7c0,0.7-0.6,0.8-1,0.8h-0.7V36.2z M189.1,40.2h0.6v-2h0.7c0.8,0,1.1-0.2,1.4-0.4
		c0.2-0.2,0.4-0.5,0.4-0.9c0-0.3-0.1-0.6-0.3-0.9c-0.3-0.3-0.7-0.4-1.2-0.4h-1.5V40.2z"/>
	<path d="M194.6,38.7c0,0.4,0,0.6-0.2,0.8c-0.1,0.2-0.4,0.3-0.7,0.3c-0.5,0-0.7-0.3-0.7-0.5c0-0.6,0.9-0.6,1.1-0.6
		C194.4,38.7,194.4,38.7,194.6,38.7 M195.2,40.2c0-0.3-0.1-0.7-0.1-0.8l0-1.5c0-0.1,0-0.3-0.1-0.5c-0.2-0.3-0.7-0.5-1.1-0.5
		c-0.3,0-0.8,0.1-1,0.3c-0.2,0.2-0.2,0.4-0.2,0.6h0.6c0-0.1,0-0.5,0.6-0.5c0.2,0,0.4,0,0.5,0.2c0.1,0.1,0.1,0.3,0.1,0.7
		c-0.2,0-0.3,0-0.4,0c-0.3,0-0.8,0-1.1,0.2c-0.5,0.3-0.6,0.7-0.6,0.9c0,0.5,0.4,0.9,1.1,0.9c0.3,0,0.7,0,1-0.6c0,0.2,0,0.3,0.1,0.5
		H195.2z"/>
	<path d="M196.1,37.1v2.1c0,0.6,0.4,1.1,1.1,1.1c0.7,0,0.9-0.4,1-0.6l0,0.5h0.6c0-0.2,0-0.5,0-0.6v-2.6h-0.6v1.8
		c0,0.2,0,0.4-0.1,0.6c-0.2,0.3-0.4,0.4-0.7,0.4c-0.6,0-0.7-0.4-0.7-0.7v-2H196.1z"/>
	<rect x="199.9" y="35.7" width="0.6" height="4.5"/>
	<path d="M202,38.7c0-1,0.6-1.2,1-1.2c0.6,0,0.9,0.4,0.9,1.2c0,0.9-0.5,1.3-1,1.3C202.3,39.9,202,39.3,202,38.7 M201.4,38.7
		c0,0.9,0.5,1.6,1.5,1.6c1.1,0,1.6-0.8,1.6-1.7c0-0.7-0.3-1.6-1.5-1.6C201.8,37,201.4,37.9,201.4,38.7z"/>
</g>
</svg>
