<?phpxml version="1.0" encoding="utf-8"?>
<!-- Generator: Adobe Illustrator 23.1.1, SVG Export Plug-In . SVG Version: 6.00 Build 0)  -->
<svg version="1.1" id="Camada_1" xmlns="http://www.w3.org/2000/svg" xmlns:xlink="http://www.w3.org/1999/xlink" x="0px" y="0px"
	 viewBox="0 0 40 38" style="enable-background:new 0 0 40 38;" xml:space="preserve">
<style type="text/css">
	.st0{fill:#333333;}
</style>
<g>
	<path class="st0" d="M20,5.23c4.49,0,5.02,0.02,6.79,0.1c1.64,0.07,2.53,0.35,3.12,0.58c0.73,0.27,1.39,0.7,1.93,1.26
		c0.56,0.54,0.99,1.2,1.26,1.93c0.23,0.59,0.5,1.48,0.58,3.12c0.08,1.77,0.1,2.3,0.1,6.79c0,4.49-0.02,5.02-0.1,6.79
		c-0.07,1.64-0.35,2.53-0.58,3.12c-0.28,0.72-0.71,1.38-1.26,1.93c-0.55,0.55-1.21,0.98-1.93,1.26c-0.59,0.23-1.48,0.5-3.12,0.58
		c-1.77,0.08-2.3,0.1-6.79,0.1c-4.49,0-5.02-0.02-6.79-0.1c-1.64-0.07-2.53-0.35-3.12-0.58c-0.73-0.27-1.39-0.7-1.93-1.26
		c-0.56-0.54-0.99-1.2-1.26-1.93c-0.23-0.59-0.5-1.48-0.58-3.12c-0.08-1.77-0.1-2.3-0.1-6.79c0-4.49,0.02-5.02,0.1-6.79
		C6.4,10.57,6.67,9.68,6.9,9.09C7.17,8.36,7.6,7.7,8.16,7.16C8.7,6.6,9.36,6.17,10.09,5.9c0.59-0.23,1.48-0.5,3.12-0.58
		C14.98,5.24,15.51,5.23,20,5.23L20,5.23z M20,2.2c-4.56,0-5.14,0.02-6.93,0.1c-1.79,0.08-3.01,0.37-4.08,0.78
		C7.87,3.5,6.86,4.16,6.02,5.02C5.16,5.86,4.5,6.87,4.08,7.99c-0.42,1.07-0.7,2.29-0.78,4.08C3.22,13.86,3.2,14.44,3.2,19
		c0,4.56,0.02,5.14,0.1,6.93c0.08,1.79,0.37,3.01,0.78,4.08c0.42,1.12,1.08,2.14,1.94,2.98C6.86,33.84,7.87,34.5,9,34.92
		c1.07,0.42,2.29,0.7,4.08,0.78c1.79,0.08,2.36,0.1,6.93,0.1c4.56,0,5.14-0.02,6.93-0.1c1.79-0.08,3.01-0.37,4.08-0.78
		c1.12-0.43,2.13-1.09,2.98-1.94c0.85-0.85,1.51-1.86,1.94-2.98c0.42-1.07,0.7-2.29,0.78-4.08c0.08-1.79,0.1-2.36,0.1-6.93
		s-0.02-5.14-0.1-6.93c-0.08-1.79-0.37-3.01-0.78-4.08c-0.42-1.12-1.08-2.14-1.94-2.98c-0.84-0.85-1.85-1.52-2.98-1.94
		c-1.07-0.42-2.29-0.7-4.08-0.78C25.14,2.22,24.56,2.2,20,2.2L20,2.2z"/>
	<path class="st0" d="M19.9,10.39c-1.7,0-3.36,0.5-4.78,1.45c-1.41,0.94-2.52,2.29-3.17,3.86c-0.65,1.57-0.82,3.3-0.49,4.97
		c0.33,1.67,1.15,3.2,2.35,4.4c1.2,1.2,2.73,2.02,4.4,2.35c1.67,0.33,3.4,0.16,4.97-0.49c1.57-0.65,2.91-1.75,3.86-3.17
		c0.94-1.41,1.45-3.08,1.45-4.78c0-2.28-0.91-4.47-2.52-6.08C24.36,11.29,22.18,10.39,19.9,10.39z M19.9,24.56
		c-1.1,0-2.18-0.33-3.1-0.94c-0.92-0.61-1.63-1.48-2.06-2.5c-0.42-1.02-0.53-2.14-0.32-3.22c0.22-1.08,0.75-2.08,1.53-2.86
		c0.78-0.78,1.77-1.31,2.86-1.53c1.08-0.22,2.2-0.1,3.22,0.32c1.02,0.42,1.89,1.14,2.5,2.06c0.61,0.92,0.94,2,0.94,3.1
		c0,1.48-0.59,2.9-1.63,3.95C22.8,23.98,21.38,24.56,19.9,24.56z"/>
	<path class="st0" d="M28.89,11.95c1.08,0,1.95-0.87,1.95-1.95c0-1.08-0.87-1.95-1.95-1.95S26.93,8.92,26.93,10
		C26.93,11.08,27.81,11.95,28.89,11.95z"/>
</g>
</svg>