<svg width="1077" height="390" viewBox="0 0 1077 390" fill="none" xmlns="http://www.w3.org/2000/svg">
<path d="M1067.96 159.508V115.36C1067.96 110.884 1067.01 107.041 1065.11 103.829C1063.22 100.617 1060.45 98.1689 1056.82 96.484C1053.19 94.7465 1048.74 93.8778 1043.47 93.8778C1038.58 93.8778 1034.18 94.7465 1030.28 96.484C1026.44 98.1689 1023.41 100.486 1021.2 103.434C1018.99 106.383 1017.89 109.673 1017.89 113.306L1011.57 113.227C1011.57 109.963 1012.33 106.83 1013.86 103.829C1015.44 100.828 1017.65 98.1689 1020.49 95.8522C1023.39 93.4829 1026.78 91.6138 1030.68 90.2448C1034.63 88.8759 1038.95 88.1914 1043.63 88.1914C1049.63 88.1914 1054.93 89.2181 1059.51 91.2715C1064.14 93.2723 1067.75 96.2997 1070.33 100.354C1072.91 104.408 1074.2 109.463 1074.2 115.518V157.691C1074.2 160.745 1074.41 163.825 1074.83 166.932C1075.25 170.038 1075.83 172.539 1076.57 174.435V175.224H1069.69C1069.12 173.224 1068.67 170.775 1068.35 167.879C1068.09 164.984 1067.96 162.193 1067.96 159.508ZM1070.01 126.732L1070.17 132.182H1049.32C1044.05 132.182 1039.34 132.682 1035.18 133.682C1031.02 134.683 1027.49 136.104 1024.6 137.947C1021.7 139.79 1019.49 141.975 1017.96 144.502C1016.44 147.029 1015.67 149.873 1015.67 153.032C1015.67 156.296 1016.54 159.297 1018.28 162.035C1020.02 164.773 1022.47 166.958 1025.63 168.59C1028.78 170.17 1032.44 170.96 1036.6 170.96C1042.29 170.96 1047.32 169.986 1051.69 168.037C1056.11 166.037 1059.82 163.351 1062.82 159.982C1065.82 156.559 1068.01 152.611 1069.38 148.135L1072.14 152.716C1071.25 155.506 1069.85 158.323 1067.96 161.166C1066.06 164.01 1063.61 166.616 1060.61 168.985C1057.61 171.302 1054.08 173.197 1050.03 174.672C1045.98 176.093 1041.37 176.804 1036.21 176.804C1030.79 176.804 1026.05 175.804 1021.99 173.803C1017.99 171.749 1014.88 168.959 1012.67 165.431C1010.46 161.851 1009.36 157.77 1009.36 153.19C1009.36 149.241 1010.25 145.634 1012.04 142.37C1013.83 139.105 1016.41 136.315 1019.78 133.998C1023.2 131.629 1027.34 129.839 1032.18 128.628C1037.08 127.364 1042.58 126.732 1048.69 126.732H1070.01Z" fill="black"/>
<path d="M970.025 104.303V175.224H963.786V89.771H969.946L970.025 104.303ZM1002.56 89.1391L1002.17 94.8255C1001.22 94.6675 1000.27 94.5359 999.326 94.4306C998.378 94.3253 997.378 94.2727 996.325 94.2727C991.797 94.2727 987.821 95.1677 984.399 96.9579C981.029 98.748 978.186 101.196 975.87 104.303C973.606 107.409 971.894 111.016 970.736 115.123C969.578 119.229 968.972 123.626 968.92 128.312L965.839 128.944C965.839 123.099 966.445 117.703 967.656 112.753C968.92 107.804 970.815 103.487 973.342 99.8011C975.87 96.1155 979.055 93.2723 982.899 91.2715C986.742 89.2181 991.27 88.1914 996.483 88.1914C997.746 88.1914 998.905 88.2967 999.958 88.5073C1001.01 88.6653 1001.88 88.8759 1002.56 89.1391Z" fill="black"/>
<path d="M931.326 155.481V89.7715H937.644V175.225H931.405L931.326 155.481ZM932.432 140.949L936.539 140.791C936.539 146.003 935.881 150.795 934.564 155.165C933.301 159.535 931.3 163.352 928.562 166.616C925.877 169.828 922.402 172.329 918.137 174.119C913.872 175.909 908.765 176.804 902.815 176.804C898.656 176.804 894.839 176.225 891.364 175.067C887.941 173.856 884.967 171.96 882.439 169.381C879.965 166.801 878.043 163.431 876.674 159.271C875.358 155.112 874.7 150.084 874.7 144.187V89.7715H880.939V144.345C880.939 149.294 881.492 153.48 882.597 156.902C883.756 160.325 885.335 163.062 887.336 165.116C889.337 167.169 891.68 168.67 894.365 169.618C897.05 170.513 899.972 170.96 903.131 170.96C910.503 170.96 916.321 169.539 920.585 166.695C924.903 163.852 927.957 160.14 929.747 155.56C931.537 150.979 932.432 146.109 932.432 140.949Z" fill="black"/>
<path d="M853.85 89.7711V95.4575H812.939V89.7711H853.85ZM828.735 67.1836H835.053V154.611C835.053 159.192 835.606 162.667 836.712 165.036C837.87 167.353 839.37 168.933 841.213 169.775C843.109 170.565 845.136 170.96 847.295 170.96C848.821 170.96 850.217 170.881 851.48 170.723C852.797 170.565 854.113 170.381 855.429 170.17L855.982 175.698C854.824 176.067 853.323 176.33 851.48 176.488C849.637 176.699 848.005 176.804 846.584 176.804C843.003 176.804 839.871 176.146 837.185 174.83C834.5 173.513 832.42 171.249 830.946 168.038C829.472 164.773 828.735 160.298 828.735 154.611V67.1836Z" fill="black"/>
<path d="M772.74 176.804C767.37 176.804 762.394 175.777 757.813 173.724C753.233 171.618 749.231 168.696 745.809 164.957C742.386 161.166 739.701 156.691 737.753 151.531C735.858 146.371 734.91 140.711 734.91 134.551V131.076C734.91 124.705 735.858 118.914 737.753 113.701C739.701 108.436 742.334 103.908 745.651 100.117C748.968 96.2734 752.785 93.3249 757.102 91.2715C761.473 89.2181 766.132 88.1914 771.081 88.1914C776.083 88.1914 780.611 89.1128 784.666 90.9556C788.72 92.7984 792.195 95.3783 795.091 98.6954C797.986 102.012 800.198 105.961 801.725 110.542C803.252 115.123 804.015 120.177 804.015 125.706V130.997H738.859V125.232H797.776V124.205C797.723 118.835 796.617 113.859 794.459 109.278C792.353 104.698 789.325 101.012 785.376 98.2215C781.427 95.3783 776.663 93.9567 771.081 93.9567C766.606 93.9567 762.526 94.9045 758.84 96.7999C755.207 98.6954 752.074 101.328 749.442 104.698C746.809 108.015 744.782 111.937 743.36 116.465C741.939 120.941 741.228 125.811 741.228 131.076V134.551C741.228 139.606 742.018 144.344 743.597 148.767C745.177 153.19 747.388 157.086 750.231 160.456C753.075 163.773 756.418 166.379 760.262 168.274C764.105 170.17 768.317 171.118 772.898 171.118C777.847 171.118 782.375 170.249 786.482 168.511C790.589 166.774 794.327 163.72 797.697 159.35L801.804 162.43C799.908 165.168 797.618 167.616 794.933 169.775C792.247 171.934 789.062 173.645 785.376 174.908C781.743 176.172 777.531 176.804 772.74 176.804Z" fill="black"/>
<path d="M719.904 89.7711V95.4575H678.994V89.7711H719.904ZM694.789 67.1836H701.108V154.611C701.108 159.192 701.66 162.667 702.766 165.036C703.924 167.353 705.425 168.933 707.268 169.775C709.163 170.565 711.19 170.96 713.349 170.96C714.876 170.96 716.271 170.881 717.535 170.723C718.851 170.565 720.167 170.381 721.484 170.17L722.037 175.698C720.878 176.067 719.378 176.33 717.535 176.488C715.692 176.699 714.06 176.804 712.638 176.804C709.058 176.804 705.925 176.146 703.24 174.83C700.555 173.513 698.475 171.249 697.001 168.038C695.527 164.773 694.789 160.298 694.789 154.611V67.1836Z" fill="black"/>
<path d="M662.33 89.7713V175.225H656.012V89.7713H662.33ZM654.037 63.8668C654.037 62.4452 654.511 61.2342 655.459 60.2338C656.459 59.1808 657.723 58.6543 659.25 58.6543C660.724 58.6543 661.961 59.1808 662.962 60.2338C663.962 61.2342 664.462 62.4452 664.462 63.8668C664.462 65.2884 663.962 66.4994 662.962 67.4998C661.961 68.4475 660.724 68.9213 659.25 68.9213C657.723 68.9213 656.459 68.4475 655.459 67.4998C654.511 66.4994 654.037 65.2884 654.037 63.8668Z" fill="black"/>
<path d="M622.525 155.481V89.7715H628.843V175.225H622.604L622.525 155.481ZM623.631 140.949L627.738 140.791C627.738 146.003 627.08 150.795 625.763 155.165C624.5 159.535 622.499 163.352 619.761 166.616C617.076 169.828 613.601 172.329 609.336 174.119C605.071 175.909 599.964 176.804 594.014 176.804C589.855 176.804 586.038 176.225 582.563 175.067C579.14 173.856 576.166 171.96 573.638 169.381C571.164 166.801 569.242 163.431 567.873 159.271C566.557 155.112 565.898 150.084 565.898 144.187V89.7715H572.138V144.345C572.138 149.294 572.691 153.48 573.796 156.902C574.955 160.325 576.534 163.062 578.535 165.116C580.536 167.169 582.879 168.67 585.564 169.618C588.249 170.513 591.171 170.96 594.33 170.96C601.702 170.96 607.52 169.539 611.784 166.695C616.102 163.852 619.156 160.14 620.946 155.56C622.736 150.979 623.631 146.109 623.631 140.949Z" fill="black"/>
<path d="M533.518 208.079V106.198L533.834 89.771H539.836V208.079H533.518ZM473.1 133.287V131.629C473.1 124.942 473.811 118.94 475.233 113.622C476.707 108.252 478.839 103.697 481.63 99.959C484.473 96.1681 487.895 93.2723 491.897 91.2715C495.951 89.2181 500.532 88.1914 505.639 88.1914C510.483 88.1914 514.774 88.9549 518.512 90.4817C522.303 91.956 525.567 94.0884 528.305 96.8789C531.096 99.6168 533.386 102.855 535.176 106.593C536.967 110.279 538.309 114.359 539.204 118.835V148.293C538.572 152.242 537.388 155.954 535.65 159.429C533.913 162.851 531.622 165.879 528.779 168.511C525.989 171.091 522.645 173.118 518.749 174.593C514.853 176.067 510.43 176.804 505.481 176.804C500.374 176.804 495.819 175.751 491.818 173.645C487.816 171.539 484.42 168.564 481.63 164.72C478.892 160.877 476.786 156.296 475.312 150.978C473.837 145.661 473.1 139.764 473.1 133.287ZM479.497 131.629V133.287C479.497 138.711 480.024 143.739 481.077 148.372C482.183 152.953 483.815 156.928 485.974 160.298C488.185 163.667 490.975 166.3 494.345 168.195C497.715 170.091 501.637 171.039 506.113 171.039C511.904 171.039 516.801 169.986 520.802 167.879C524.857 165.773 528.095 162.983 530.517 159.508C532.939 155.98 534.624 152.11 535.571 147.898V120.019C535.045 117.439 534.15 114.675 532.886 111.727C531.622 108.725 529.859 105.882 527.595 103.197C525.383 100.459 522.514 98.2478 518.986 96.563C515.511 94.8255 511.273 93.9567 506.271 93.9567C501.743 93.9567 497.794 94.9045 494.424 96.7999C491.054 98.6954 488.264 101.354 486.052 104.777C483.841 108.146 482.183 112.122 481.077 116.702C480.024 121.283 479.497 126.258 479.497 131.629Z" fill="black"/>
<path d="M430.452 104.303V175.224H424.213V89.771H430.373L430.452 104.303ZM462.991 89.1391L462.596 94.8255C461.648 94.6675 460.701 94.5359 459.753 94.4306C458.805 94.3253 457.805 94.2727 456.752 94.2727C452.224 94.2727 448.249 95.1677 444.826 96.9579C441.457 98.748 438.613 101.196 436.297 104.303C434.033 107.409 432.322 111.016 431.163 115.123C430.005 119.229 429.399 123.626 429.347 128.312L426.267 128.944C426.267 123.099 426.872 117.703 428.083 112.753C429.347 107.804 431.242 103.487 433.77 99.8011C436.297 96.1155 439.482 93.2723 443.326 91.2715C447.169 89.2181 451.697 88.1914 456.91 88.1914C458.173 88.1914 459.332 88.2967 460.385 88.5073C461.438 88.6653 462.307 88.8759 462.991 89.1391Z" fill="black"/>
<path d="M1067.9 341.429V297.28C1067.9 292.805 1066.96 288.962 1065.06 285.75C1063.17 282.538 1060.4 280.09 1056.77 278.405C1053.14 276.667 1048.69 275.799 1043.42 275.799C1038.52 275.799 1034.13 276.667 1030.23 278.405C1026.39 280.09 1023.36 282.406 1021.15 285.355C1018.94 288.303 1017.83 291.594 1017.83 295.227L1011.51 295.148C1011.51 291.884 1012.28 288.751 1013.8 285.75C1015.38 282.749 1017.6 280.09 1020.44 277.773C1023.33 275.404 1026.73 273.535 1030.63 272.166C1034.58 270.797 1038.89 270.112 1043.58 270.112C1049.58 270.112 1054.87 271.139 1059.45 273.192C1064.09 275.193 1067.69 278.221 1070.27 282.275C1072.85 286.329 1074.14 291.384 1074.14 297.438V339.612C1074.14 342.666 1074.35 345.746 1074.78 348.853C1075.2 351.959 1075.78 354.46 1076.51 356.355V357.145H1069.64C1069.06 355.145 1068.62 352.696 1068.3 349.8C1068.04 346.905 1067.9 344.114 1067.9 341.429ZM1069.96 308.653L1070.12 314.103H1049.27C1044 314.103 1039.29 314.603 1035.13 315.603C1030.97 316.604 1027.44 318.025 1024.55 319.868C1021.65 321.711 1019.44 323.896 1017.91 326.423C1016.38 328.95 1015.62 331.794 1015.62 334.953C1015.62 338.217 1016.49 341.218 1018.23 343.956C1019.97 346.694 1022.41 348.879 1025.57 350.511C1028.73 352.091 1032.39 352.88 1036.55 352.88C1042.24 352.88 1047.26 351.906 1051.64 349.958C1056.06 347.958 1059.77 345.272 1062.77 341.903C1065.77 338.48 1067.96 334.531 1069.33 330.056L1072.09 334.637C1071.2 337.427 1069.8 340.244 1067.9 343.087C1066.01 345.93 1063.56 348.537 1060.56 350.906C1057.56 353.223 1054.03 355.118 1049.98 356.592C1045.92 358.014 1041.32 358.725 1036.16 358.725C1030.73 358.725 1025.99 357.724 1021.94 355.724C1017.94 353.67 1014.83 350.88 1012.62 347.352C1010.41 343.772 1009.3 339.691 1009.3 335.111C1009.3 331.162 1010.2 327.555 1011.99 324.291C1013.78 321.026 1016.36 318.236 1019.73 315.919C1023.15 313.55 1027.28 311.76 1032.13 310.549C1037.02 309.285 1042.53 308.653 1048.63 308.653H1069.96Z" fill="black"/>
<path d="M993.745 271.692V277.378H952.834V271.692H993.745ZM968.63 249.104H974.948V336.532C974.948 341.113 975.501 344.588 976.607 346.957C977.765 349.274 979.266 350.854 981.108 351.696C983.004 352.486 985.031 352.881 987.19 352.881C988.716 352.881 990.112 352.802 991.375 352.644C992.692 352.486 994.008 352.301 995.324 352.091L995.877 357.619C994.719 357.988 993.218 358.251 991.375 358.409C989.533 358.62 987.9 358.725 986.479 358.725C982.898 358.725 979.766 358.067 977.08 356.751C974.395 355.434 972.316 353.17 970.841 349.958C969.367 346.694 968.63 342.219 968.63 336.532V249.104Z" fill="black"/>
<path d="M934.512 335.9C934.512 333.373 933.827 330.872 932.458 328.398C931.142 325.923 928.694 323.606 925.113 321.448C921.586 319.289 916.452 317.472 909.713 315.998C904.922 314.945 900.683 313.787 896.998 312.523C893.365 311.259 890.311 309.733 887.836 307.942C885.362 306.1 883.492 303.915 882.229 301.387C881.018 298.86 880.412 295.833 880.412 292.305C880.412 289.251 881.07 286.382 882.387 283.696C883.703 281.011 885.625 278.668 888.152 276.667C890.732 274.614 893.812 273.008 897.392 271.85C900.973 270.691 905.027 270.112 909.555 270.112C916.031 270.112 921.559 271.192 926.14 273.35C930.773 275.456 934.327 278.379 936.802 282.117C939.277 285.802 940.514 290.094 940.514 294.99H934.196C934.196 291.673 933.248 288.567 931.353 285.671C929.457 282.775 926.667 280.432 922.981 278.642C919.348 276.799 914.873 275.878 909.555 275.878C904.184 275.878 899.814 276.694 896.445 278.326C893.075 279.958 890.6 282.038 889.021 284.565C887.494 287.04 886.73 289.567 886.73 292.147C886.73 294.2 887.02 296.122 887.599 297.912C888.231 299.65 889.416 301.256 891.153 302.73C892.891 304.204 895.392 305.626 898.656 306.995C901.92 308.311 906.159 309.548 911.371 310.707C918.216 312.234 923.797 314.103 928.115 316.314C932.432 318.473 935.617 321.132 937.671 324.291C939.724 327.397 940.751 331.214 940.751 335.742C940.751 339.112 940.04 342.219 938.619 345.062C937.197 347.852 935.144 350.274 932.458 352.328C929.826 354.381 926.614 355.961 922.823 357.066C919.032 358.172 914.82 358.725 910.187 358.725C903.184 358.725 897.234 357.619 892.338 355.408C887.494 353.144 883.808 350.169 881.281 346.483C878.806 342.798 877.569 338.823 877.569 334.558H883.887C884.256 339.244 885.783 342.929 888.468 345.615C891.206 348.3 894.523 350.195 898.419 351.301C902.368 352.407 906.29 352.959 910.187 352.959C915.505 352.959 919.954 352.143 923.534 350.511C927.167 348.826 929.905 346.694 931.748 344.114C933.59 341.481 934.512 338.744 934.512 335.9Z" fill="black"/>
<path d="M855.14 271.691V357.145H848.821V271.691H855.14ZM846.847 245.787C846.847 244.365 847.321 243.154 848.269 242.154C849.269 241.101 850.533 240.574 852.059 240.574C853.534 240.574 854.771 241.101 855.771 242.154C856.772 243.154 857.272 244.365 857.272 245.787C857.272 247.208 856.772 248.419 855.771 249.42C854.771 250.367 853.534 250.841 852.059 250.841C850.533 250.841 849.269 250.367 848.269 249.42C847.321 248.419 846.847 247.208 846.847 245.787Z" fill="black"/>
<path d="M820.548 235.836V357.145H814.229V235.836H820.548Z" fill="black"/>
<path d="M780.743 337.4V271.691H787.061V357.145H780.822L780.743 337.4ZM781.849 322.869L785.956 322.711C785.956 327.923 785.297 332.715 783.981 337.085C782.717 341.455 780.717 345.272 777.979 348.536C775.294 351.748 771.819 354.249 767.554 356.039C763.289 357.829 758.182 358.724 752.232 358.724C748.073 358.724 744.256 358.145 740.781 356.987C737.358 355.776 734.383 353.88 731.856 351.3C729.381 348.721 727.46 345.351 726.091 341.191C724.774 337.032 724.116 332.004 724.116 326.107V271.691H730.356V326.265C730.356 331.214 730.908 335.4 732.014 338.822C733.172 342.244 734.752 344.982 736.753 347.036C738.753 349.089 741.096 350.59 743.782 351.537C746.467 352.433 749.389 352.88 752.548 352.88C759.919 352.88 765.737 351.458 770.002 348.615C774.32 345.772 777.373 342.06 779.163 337.479C780.954 332.899 781.849 328.029 781.849 322.869Z" fill="black"/>
<path d="M691.499 341.429V297.28C691.499 292.805 690.551 288.962 688.656 285.75C686.76 282.538 683.996 280.09 680.363 278.405C676.73 276.667 672.281 275.799 667.016 275.799C662.119 275.799 657.723 276.667 653.827 278.405C649.983 280.09 646.956 282.406 644.744 285.355C642.533 288.303 641.427 291.594 641.427 295.227L635.109 295.148C635.109 291.884 635.872 288.751 637.399 285.75C638.979 282.749 641.19 280.09 644.033 277.773C646.929 275.404 650.325 273.535 654.221 272.166C658.17 270.797 662.488 270.112 667.174 270.112C673.176 270.112 678.467 271.139 683.048 273.192C687.681 275.193 691.288 278.221 693.868 282.275C696.448 286.329 697.738 291.384 697.738 297.438V339.612C697.738 342.666 697.949 345.746 698.37 348.853C698.791 351.959 699.37 354.46 700.107 356.355V357.145H693.236C692.657 355.145 692.21 352.696 691.894 349.8C691.63 346.905 691.499 344.114 691.499 341.429ZM693.552 308.653L693.71 314.103H672.86C667.595 314.103 662.883 314.603 658.723 315.603C654.564 316.604 651.036 318.025 648.14 319.868C645.244 321.711 643.033 323.896 641.506 326.423C639.979 328.95 639.216 331.794 639.216 334.953C639.216 338.217 640.085 341.218 641.822 343.956C643.56 346.694 646.008 348.879 649.167 350.511C652.326 352.091 655.985 352.88 660.145 352.88C665.831 352.88 670.859 351.906 675.229 349.958C679.652 347.958 683.364 345.272 686.365 341.903C689.366 338.48 691.551 334.531 692.92 330.056L695.685 334.637C694.789 337.427 693.394 340.244 691.499 343.087C689.603 345.93 687.155 348.537 684.154 350.906C681.153 353.223 677.625 355.118 673.571 356.592C669.517 358.014 664.91 358.725 659.75 358.725C654.327 358.725 649.588 357.724 645.534 355.724C641.532 353.67 638.426 350.88 636.215 347.352C634.003 343.772 632.898 339.691 632.898 335.111C632.898 331.162 633.793 327.555 635.583 324.291C637.373 321.026 639.953 318.236 643.323 315.919C646.745 313.55 650.878 311.76 655.722 310.549C660.619 309.285 666.121 308.653 672.228 308.653H693.552Z" fill="black"/>
<path d="M555.579 288.119V390H549.261V271.692H555.342L555.579 288.119ZM616.075 313.55V315.208C616.075 321.684 615.338 327.581 613.864 332.899C612.442 338.217 610.336 342.798 607.546 346.641C604.808 350.485 601.438 353.46 597.437 355.566C593.435 357.672 588.881 358.725 583.774 358.725C578.877 358.725 574.481 358.014 570.584 356.592C566.688 355.118 563.319 353.065 560.475 350.432C557.632 347.8 555.342 344.798 553.604 341.429C551.867 338.006 550.656 334.347 549.971 330.451V300.755C550.866 296.28 552.209 292.2 553.999 288.514C555.842 284.776 558.132 281.538 560.87 278.8C563.661 276.009 566.952 273.877 570.742 272.403C574.533 270.876 578.824 270.112 583.616 270.112C588.723 270.112 593.277 271.139 597.279 273.192C601.333 275.193 604.755 278.089 607.546 281.88C610.336 285.618 612.442 290.173 613.864 295.543C615.338 300.861 616.075 306.863 616.075 313.55ZM609.678 315.208V313.55C609.678 308.179 609.125 303.204 608.02 298.623C606.967 294.042 605.334 290.067 603.123 286.698C600.912 283.328 598.121 280.695 594.752 278.8C591.382 276.904 587.407 275.957 582.826 275.957C577.824 275.957 573.586 276.799 570.111 278.484C566.636 280.116 563.766 282.248 561.502 284.881C559.291 287.514 557.58 290.357 556.369 293.411C555.158 296.412 554.263 299.255 553.683 301.94V329.977C554.631 334.189 556.316 338.033 558.738 341.508C561.16 344.983 564.372 347.773 568.373 349.879C572.427 351.933 577.298 352.959 582.984 352.959C587.565 352.959 591.513 352.012 594.831 350.116C598.148 348.221 600.912 345.588 603.123 342.219C605.334 338.849 606.967 334.874 608.02 330.293C609.125 325.66 609.678 320.631 609.678 315.208Z" fill="black"/>
<path d="M322 44L400.808 177.5H243.192L322 44Z" fill="black"/>
<path d="M91 44L169.808 177.5H12.1917L91 44Z" fill="black"/>
<path d="M207 179L128.192 44.75L285.808 44.75L207 179Z" fill="black"/>
</svg>
